<svg version="1.1" id="Signature" xmlns="http://www.w3.org/2000/svg" xmlns:xlink="http://www.w3.org/1999/xlink" x="0" y="0" viewBox="0 0 840 280.08" xml:space="preserve"><defs><style>@import url(https://fonts.googleapis.com/css2?family=Lato:wght@400;700;900);</style></defs><image overflow="visible" width="1680" height="560" xlink:href="https://raw.githubusercontent.com/HAMMAMIMedAli/Signature/main/background.png" transform="matrix(.5 0 0 .5 0 .04)" id="Background_00000136378113993861435690000009767740579890233520_"/><g id="Shape_00000000214683052110079720000010804354010373697675_" fill="#2F2F2F"><path d="M115.92 0v124.56c0 26.91 21.81 48.72 48.72 48.72s48.72-21.81 48.72-48.72V0h-97.44zM287.22 161.92h107.37v1.15H287.22zM502.32 102.72h1.2v74.4h-1.2zM0 256.08h840v24H0z"/></g><g id="Image_00000077313067147333078680000010295578198076688818_"><defs><circle id="SVGID_1_" cx="164.4" cy="115.92" r="67.44"/></defs><use xlink:href="#SVGID_1_" overflow="visible" fill="#F1F0F0"/><clipPath id="SVGID_00000048469861118369572410000009374340977024250267_"><use xlink:href="#SVGID_1_" overflow="visible"/></clipPath><g clip-path="url(#SVGID_00000048469861118369572410000009374340977024250267_)"><image overflow="visible" width="512" height="512" xlink:href="https://raw.githubusercontent.com/HAMMAMIMedAli/Signature/main/me.png" transform="translate(99.864 51.384) scale(.2521)"/></g><use xlink:href="#SVGID_1_" overflow="visible" fill="none" stroke="#F1F0F0" stroke-width="7.68" stroke-miterlimit="10"/></g><g id="Name_Title_00000101071949513986902510000002775195284726888070_"><text transform="matrix(1.0012 0 0 1 284.736 148.544)" fill="#2F2F2F" font-family="'Lato Regular'" font-size="19.232">Full Stack Developer</text><text transform="matrix(.9945 0 0 1 285.607 100)">
			<tspan x="0" y="0" fill="#2F2F2F" font-family="'Lato Semibold'" font-size="21.067">HAMMAMI</tspan>
			<tspan x="0" y="28" fill="#2F2F2F" font-family="'Lato Black'" font-size="28">MOHAMED ALI</tspan>
		</text></g><g id="Social_Media_00000020384478965713175990000009112444927772879269_"><a xlink:href="https://wa.me/21626996374" id="WhatsApp"><circle fill="#2F2F2F" cx="369.59" cy="186.63" r="9.76"/><g id="XMLID_468_" fill="#F1F0F0"><path id="XMLID_469_" d="M372.49 187.53c-.02-.01-.9-.45-1.06-.5-.06-.02-.13-.05-.21-.05-.12 0-.22.06-.3.18-.09.13-.35.44-.44.54l-.03.03c-.01 0-.14-.06-.19-.07-.94-.41-1.66-1.4-1.76-1.56-.01-.02-.01-.03-.01-.03 0-.01.04-.04.05-.06.05-.05.1-.11.15-.17.02-.03.05-.06.07-.08.07-.08.11-.15.14-.23l.02-.04c.09-.18.01-.34-.01-.39-.02-.04-.39-.94-.43-1.03-.1-.23-.22-.33-.4-.33h-.07c-.08 0-.53.06-.73.19-.21.13-.57.56-.57 1.3 0 .67.43 1.31.61 1.55 0 .01.01.02.03.04.7 1.02 1.58 1.78 2.46 2.14.85.34 1.26.38 1.49.38.1 0 .17-.01.24-.01h.04c.29-.03.94-.36 1.09-.77.12-.32.15-.67.07-.8-.04-.13-.13-.17-.25-.23z"/><path id="XMLID_470_" d="M369.7 180.59c-3.27 0-5.93 2.64-5.93 5.89 0 1.05.28 2.08.81 2.98l-1.02 3.01c-.02.06 0 .12.04.16.03.03.07.05.11.05.02 0 .03 0 .05-.01l3.14-1c.86.46 1.83.7 2.81.7 3.27 0 5.93-2.64 5.93-5.89 0-3.25-2.67-5.89-5.94-5.89zm0 10.55c-.92 0-1.82-.27-2.59-.77a.161.161 0 0 0-.09-.03c-.02 0-.03 0-.05.01l-1.57.5.51-1.5a.14.14 0 0 0-.02-.14c-.59-.8-.89-1.75-.89-2.73 0-2.57 2.11-4.66 4.7-4.66 2.59 0 4.7 2.09 4.7 4.66 0 2.57-2.11 4.66-4.7 4.66z"/></g></a><a xlink:href="https://telegram.me/droop8" id="Telegram"><circle fill="#2F2F2F" cx="344.8" cy="186.63" r="9.76"/><path fill="#F1F0F0" d="M349.75 181.41c-.15.01-.29.05-.42.1s-.73.31-1.65.69c-.92.39-2.12.89-3.3 1.39-2.37 1-4.7 1.98-4.7 1.98l.03-.01s-.16.05-.33.17a.87.87 0 0 0-.26.25c-.08.12-.15.31-.12.5.04.32.25.52.4.62.15.11.3.16.3.16l2.18.74c.1.31.67 2.18.8 2.61.08.26.16.42.26.54.05.06.1.12.17.16a.3.3 0 0 0 .08.04c.01.01.02.01.03.01l-.02-.01c.01 0 .01.01.02.01.02.01.03.01.05.01.35.1.62-.11.62-.11l.02-.01 1.29-1.17 2.16 1.66.05.02c.45.2.91.09 1.15-.11.24-.2.34-.45.34-.45l.02-.04 1.67-8.56c.05-.21.06-.41.01-.6a.833.833 0 0 0-.35-.47.895.895 0 0 0-.5-.12zm-.04.92c0 .03 0 .02-.01.08v.01l-1.65 8.47c-.01.01-.02.04-.05.06-.03.03-.06.05-.21-.01l-2.64-2.03-1.6 1.46.34-2.14s4.14-3.86 4.32-4.03c.18-.17.12-.2.12-.2.01-.2-.27-.06-.27-.06l-5.45 3.37v-.01l-2.61-.88h-.01l.01-.01.01-.01.01-.01s2.33-.98 4.7-1.98c1.19-.5 2.38-1 3.3-1.39.92-.39 1.6-.67 1.64-.68.04-.01.02-.01.05-.01z"/></a><a xlink:href="https://linkedin.com/in/medalih" id="LinkedIn"><circle fill="#2F2F2F" cx="320.04" cy="186.63" r="9.76"/><g id="XMLID_801_" fill="#F1F0F0"><path id="XMLID_802_" d="M317.31 184.81h-2.05c-.09 0-.16.07-.16.16v6.58c0 .09.07.16.16.16h2.05c.09 0 .16-.07.16-.16v-6.58c0-.08-.07-.16-.16-.16z"/><path id="XMLID_803_" d="M316.29 181.54c-.75 0-1.35.61-1.35 1.35 0 .74.61 1.35 1.35 1.35.74 0 1.35-.61 1.35-1.35 0-.74-.61-1.35-1.35-1.35z"/><path id="XMLID_804_" d="M322.52 184.65c-.82 0-1.43.35-1.8.76v-.43c0-.09-.07-.16-.16-.16h-1.96c-.09 0-.16.07-.16.16v6.58c0 .09.07.16.16.16h2.04c.09 0 .16-.07.16-.16v-3.26c0-1.1.3-1.52 1.06-1.52.83 0 .9.69.9 1.58v3.2c0 .09.07.16.16.16h2.04c.09 0 .16-.07.16-.16v-3.61c.02-1.63-.29-3.3-2.6-3.3z"/></g></a><a xlink:href="https://facebook.com/droop8" id="Facebook"><circle fill="#2F2F2F" cx="295.35" cy="186.63" r="9.76"/><g id="XMLID_834_"><path id="XMLID_835_" fill="#F1F0F0" d="M292.8 186.98h1.18v4.86c0 .1.08.17.17.17h2c.1 0 .17-.08.17-.17V187h1.36c.09 0 .16-.07.17-.15l.21-1.79a.18.18 0 0 0-.04-.14.161.161 0 0 0-.13-.06h-1.56v-1.12c0-.34.18-.51.54-.51h1.02c.1 0 .17-.08.17-.17v-1.64c0-.1-.08-.17-.17-.17h-1.47c-.24 0-1.09.05-1.77.67-.74.68-.64 1.5-.62 1.65v1.31h-1.24c-.1 0-.17.08-.17.17v1.77c.01.09.09.16.18.16z"/></g></a></g><g id="Contact_Info_00000072962547722454356370000011076663191923467173_"><g id="Text_00000008128779920710701670000011774284511825055145_"><text transform="matrix(.9979 0 0 1 566.66 180.216)" fill="#2F2F2F" font-family="'Lato Regular'" font-size="16">La Soukra, Ariana, Tunisia</text><a xlink:href="https://dhpro.net"><text transform="matrix(.9984 0 0 1 566.654 157.02)" fill="#2F2F2F" font-family="'Lato Regular'" font-size="16">dhpro.net</text></a><a xlink:href="mailto:dalihamami96@gmail.com"><text transform="matrix(.9984 0 0 1 567.787 131.486)" fill="#2F2F2F" font-family="'Lato Regular'" font-size="16">dalihamami96@gmail.com</text></a><a xlink:href="tel:+21626996374"><text transform="matrix(.9984 0 0 1 562.894 108.79)" fill="#2F2F2F" font-family="'Lato Regular'" font-size="16">+216 26 996 374</text></a></g><g id="icone_00000098913813740145322630000012907350377800501172_" fill="#2F2F2F"><path d="m554.04 174.29.05-4.16-1.86-.02-.03 2.31-2.75-2.8-7.53 7.31v.46l1.86.02-.06 4.62 4.65.06.03-2.78 1.86.02-.03 2.78 4.65.05.05-4.62 1.86.02.01-.46zM556.64 151.24c-.18-3.41-2.88-6.17-6.29-6.44v-.02l-.46-.01-.46-.01v.02a6.843 6.843 0 0 0-6.45 6.29h-.02l-.01.46-.01.46h.02c.18 3.41 2.88 6.17 6.3 6.44v.02l.46.01.46.01v-.02a6.843 6.843 0 0 0 6.45-6.29h.02l.01-.46.01-.46h-.03zm-9.33-4.99c-.45.58-.82 1.31-1.1 2.14l-1.37-.02c.61-.92 1.46-1.66 2.47-2.12zm-2.95 3.03 1.6.02c-.13.57-.21 1.19-.25 1.82l-1.82-.02c.06-.65.22-1.26.47-1.82zm-.47 2.73 1.82.02c.02.64.09 1.25.2 1.83l-1.6-.02c-.24-.58-.38-1.19-.42-1.83zm.88 2.74 1.37.02c.26.84.61 1.58 1.05 2.17-1-.5-1.84-1.26-2.42-2.19zm4.51 2.73c-.93-.26-1.73-1.28-2.2-2.7l2.24.03-.04 2.67zm.04-3.59-2.49-.03c-.12-.57-.2-1.18-.21-1.83l2.73.03-.03 1.83zm.03-2.73-2.73-.03c.03-.64.12-1.25.26-1.82l2.49.03-.02 1.82zm.04-2.73-2.24-.03c.51-1.41 1.33-2.41 2.27-2.65l-.03 2.68zm5.45.06-1.36-.02c-.26-.84-.61-1.58-1.05-2.17.99.5 1.83 1.26 2.41 2.19zm-4.51-2.73c.93.26 1.73 1.28 2.2 2.7l-2.24-.03.04-2.67zm-.04 3.59 2.49.03c.12.57.2 1.18.22 1.83l-2.73-.03.02-1.83zm-.04 2.73 2.73.03c-.03.64-.12 1.25-.26 1.82l-2.49-.03.02-1.82zm-.06 5.41.03-2.67 2.24.03c-.51 1.4-1.33 2.4-2.27 2.64zm2.11-.5c.45-.58.82-1.31 1.1-2.14l1.36.02c-.6.92-1.46 1.66-2.46 2.12zm2.95-3.03-1.6-.02c.13-.57.21-1.18.25-1.82l1.82.02a6.02 6.02 0 0 1-.47 1.82zm-1.34-2.75c-.02-.64-.09-1.25-.2-1.83l1.6.02c.23.57.37 1.19.41 1.83l-1.81-.02zM551.47 128.69c-.27.2-.48.35-.65.46-.17.11-.39.22-.66.34-.28.11-.53.17-.77.17h-.02c-.24 0-.49-.06-.77-.18-.27-.12-.49-.24-.65-.35s-.38-.27-.64-.48c-.07-.06-.15-.12-.24-.19l-3.58 3.6c.2.19.45.29.73.29l10.26.12c.28 0 .53-.09.73-.28l-3.5-3.68-.24.18zm-7.59-2.56c-.26-.18-.5-.4-.7-.63l-.07 5.54 3.16-3.17c-.62-.46-1.41-1.04-2.39-1.74zm8.65 1.81 3.08 3.25.07-5.54c-.2.23-.44.43-.7.62-.97.64-1.78 1.2-2.45 1.67zm-8.15-2.58c.16.12.63.46 1.42 1.04.43.31.8.58 1.11.82.27.2.5.37.7.51.02.02.06.04.1.08.05.04.11.09.19.14.15.11.27.21.37.28s.22.15.36.24c.14.09.27.15.4.2.13.04.24.07.35.07h.02c.11 0 .22-.02.35-.06.13-.04.26-.1.4-.19.14-.08.26-.16.37-.23.1-.07.23-.16.38-.27.08-.06.14-.1.19-.14.05-.03.08-.06.11-.08.15-.11.39-.27.71-.5.58-.41 1.44-1 2.58-1.8.34-.24.63-.53.86-.87.23-.34.35-.7.35-1.08 0-.32-.1-.59-.32-.81-.22-.23-.48-.34-.78-.35l-10.26-.12c-.36 0-.63.12-.83.36-.2.25-.3.56-.3.93 0 .3.12.63.37.98.25.37.51.65.8.85zM555.62 106.03l-2.41-1.46h-.01a.657.657 0 0 0-.34-.08c-.2 0-.38.06-.53.2l-.73.72a.15.15 0 0 1-.08.04c-.04.01-.07.02-.08.02l-.16-.03c-.1-.02-.25-.08-.45-.19-.2-.1-.44-.26-.73-.48s-.62-.52-.99-.91c-.38-.38-.67-.72-.88-1.01-.21-.29-.36-.54-.46-.74-.11-.23-.19-.43-.22-.61 0-.03.01-.06.02-.09.01-.04.03-.06.04-.08l.62-.61c.11-.11.18-.24.22-.4.04-.16.02-.31-.06-.44l-1.31-2.57c-.06-.09-.13-.17-.21-.24a.484.484 0 0 0-.29-.1.56.56 0 0 0-.4.17l-1.69 1.65c-.08.07-.16.17-.22.29-.06.12-.1.24-.12.36 0 .02-.01.1-.02.25s0 .36.04.62.11.58.23.95c.11.37.28.78.51 1.23.23.45.53.94.91 1.48.38.53.86 1.09 1.44 1.68.73.76 1.42 1.35 2.07 1.79.65.44 1.23.76 1.74.98.51.22.95.36 1.3.42.36.06.61.09.77.09h.16c.04 0 .07-.01.08-.01.12-.02.24-.05.36-.11s.22-.13.3-.21l1.69-1.64c.14-.14.2-.31.18-.5-.01-.18-.11-.32-.29-.43z"/></g></g><g id="Logo_00000030477400314383553530000000596187670159927938_"><image overflow="visible" width="462" height="90" id="CloudShift_xA0_Image" xlink:href="https://cloudshift.fr/assets/img/CloudShift.svg" transform="matrix(.24 0 0 .24 108.96 203.76)"/></g></svg>